HIERARCHY
ROOT Hips
{
	OFFSET 0.000000 88.474243 0.000000
	CHANNELS 6 Xposition Yposition Zposition Zrotation Yrotation Xrotation 
	JOINT Hips_Spine
	{
		OFFSET 0.000000 0.000000 0.000000
		CHANNELS 3 Zrotation Yrotation Xrotation
		JOINT Spine
		{
			OFFSET 0.005100 8.711998 -0.691000
			CHANNELS 3 Zrotation Yrotation Xrotation
			JOINT Spine1
			{
				OFFSET -0.009200 8.660301 -1.275000
				CHANNELS 3 Zrotation Yrotation Xrotation
				JOINT Spine2
				{
					OFFSET 0.006300 9.852501 -1.857000
					CHANNELS 3 Zrotation Yrotation Xrotation
					JOINT Spine2_Neck
					{
						OFFSET 0.000000 0.000000 0.000000
						CHANNELS 3 Zrotation Yrotation Xrotation
						JOINT Neck
						{
							OFFSET 0.016300 11.420799 -0.263300
							CHANNELS 3 Zrotation Yrotation Xrotation
							End Site #name: Head
							{
								OFFSET -0.019200 9.262405 2.362500
							}
						}
					}
					JOINT Spine2_LeftShoulder
					{
						OFFSET 0.000000 0.000000 0.000000
						CHANNELS 3 Zrotation Yrotation Xrotation
						JOINT LeftShoulder
						{
							OFFSET 5.616900 6.732201 -0.345700
							CHANNELS 3 Zrotation Yrotation Xrotation
							JOINT LeftArm
							{
								OFFSET 10.664888 -0.183372 -2.440700
								CHANNELS 3 Zrotation Yrotation Xrotation
								JOINT LeftForeArm
								{
									OFFSET 27.459126 0.000000 0.000000
									CHANNELS 3 Zrotation Yrotation Xrotation
									End Site #name: LeftHand
									{
										OFFSET 21.306858 0.000000 0.000000
									}
								}
							}
						}
					}
					JOINT Spine2_RightShoulder
					{
						OFFSET 0.000000 0.000000 0.000000
						CHANNELS 3 Zrotation Yrotation Xrotation
						JOINT RightShoulder
						{
							OFFSET -5.580300 6.737503 -0.344400
							CHANNELS 3 Zrotation Yrotation Xrotation
							JOINT RightArm
							{
								OFFSET -10.679335 -0.188484 -2.383900
								CHANNELS 3 Zrotation Yrotation Xrotation
								JOINT RightForeArm
								{
									OFFSET -27.503529 0.000000 0.000000
									CHANNELS 3 Zrotation Yrotation Xrotation
									End Site #name: RightHand
									{
										OFFSET -21.306808 0.000000 0.000000
									}
								}
							}
						}
					}
				}
			}
		}
	}
	JOINT Hips_LeftUpLeg
	{
		OFFSET 0.000000 0.000000 0.000000
		CHANNELS 3 Zrotation Yrotation Xrotation
		JOINT LeftUpLeg
		{
			OFFSET 6.857700 -6.739601 0.312100
			CHANNELS 3 Zrotation Yrotation Xrotation
			JOINT LeftLeg
			{
				OFFSET -0.367590 -34.731552 -4.572400
				CHANNELS 3 Zrotation Yrotation Xrotation
				End Site #name: LeftFoot
				{
					OFFSET 0.367590 -34.656704 -6.067400
				}
			}
		}
	}
	JOINT Hips_RightUpLeg
	{
		OFFSET 0.000000 0.000000 0.000000
		CHANNELS 3 Zrotation Yrotation Xrotation
		JOINT RightUpLeg
		{
			OFFSET -6.876100 -6.733299 0.301000
			CHANNELS 3 Zrotation Yrotation Xrotation
			JOINT RightLeg
			{
				OFFSET 0.347353 -34.795158 -4.515900
				CHANNELS 3 Zrotation Yrotation Xrotation
				End Site #name: RightFoot
				{
					OFFSET -0.347353 -34.589367 -6.070300
				}
			}
		}
	}
}
MOTION
Frames: 17
Frame Time: 0.041667
-0.760373 0.155691 -0.685445 -1.436682 17.969161 -7.197080 -0.000000 0.000000 0.000000 3.926317 0.599682 -5.770447 3.657554 -0.516425 -1.850868 0.000000 0.000000 0.000000 3.891939 -0.235533 -1.973143 1.609691 -2.970927 -0.757111 3.597387 -0.689192 -1.461538 -24.868807 1.523284 3.563323 -51.551909 21.157309 12.024776 -1.049293 -25.235220 3.646241 3.202923 -0.229382 -0.891652 12.998839 7.304339 2.085371 59.986457 3.639049 -9.824390 0.785990 39.014953 -0.335454 0.000000 0.000000 -0.000000 -6.056633 18.443833 -6.463117 2.895324 11.756064 21.253398 0.000000 0.000000 0.000000 -1.937523 -2.478768 -14.440411 2.763064 -6.671226 9.456470 
-1.045132 0.113999 -0.626423 -1.753652 19.135759 -7.365168 -0.000000 0.000000 0.000000 4.366074 0.706835 -5.811877 3.808640 -0.549998 -1.837003 0.000000 0.000000 0.000000 4.021634 -0.234291 -1.952104 1.689371 -2.967701 -0.564185 3.764328 -0.710351 -1.395640 -24.233246 1.583545 3.664100 -52.193873 21.226979 11.522718 -1.093727 -25.996788 3.632699 3.339639 -0.225739 -0.894697 13.047696 7.610107 2.158504 59.811939 3.475875 -9.660443 0.792440 39.353585 -0.332568 0.000000 0.000000 -0.000000 -5.505125 18.577615 -6.636972 2.743370 11.521159 22.028137 0.000000 0.000000 0.000000 -1.326625 -2.724561 -14.986635 2.956819 -6.683192 10.385947 
-1.297071 0.067124 -0.534088 -2.049787 19.911115 -7.530842 0.000000 0.000000 0.000000 4.717978 0.760784 -5.772168 3.946050 -0.584950 -1.826391 0.000000 0.000000 0.000000 4.146376 -0.229892 -1.939358 1.810988 -2.991014 -0.303769 3.924673 -0.728919 -1.315102 -23.693057 1.630188 3.742780 -52.724445 21.301844 11.029159 -1.136252 -26.712847 3.644284 3.465905 -0.221750 -0.899455 13.129493 7.894717 2.219583 59.700110 3.317707 -9.534225 0.798081 39.632631 -0.327392 0.000000 -0.000000 -0.000000 -4.868405 18.699554 -6.603374 2.508136 11.275681 22.664950 0.000000 0.000000 0.000000 -0.762260 -2.874518 -15.497521 3.155912 -6.722591 11.325894 
-1.509307 0.013934 -0.417351 -2.291748 20.195696 -7.670425 0.000000 0.000000 0.000000 4.986166 0.773725 -5.655304 4.083521 -0.624054 -1.809933 0.000000 0.000000 0.000000 4.265449 -0.229032 -1.924260 1.925521 -3.020736 -0.038580 4.078287 -0.744580 -1.234345 -23.244133 1.645611 3.794323 -53.179117 21.355934 10.590918 -1.182660 -27.365472 3.673234 3.583550 -0.224727 -0.904023 13.226301 8.157996 2.265741 59.613118 3.223057 -9.356628 0.807986 39.863605 -0.319576 0.000000 -0.000000 -0.000000 -4.137404 18.874837 -6.119014 2.309237 10.985968 22.914104 0.000000 -0.000000 0.000000 -0.265681 -2.950506 -15.958210 3.391927 -6.808100 12.186687 
-1.675473 -0.046564 -0.290814 -2.447800 19.861343 -7.785931 0.000000 0.000000 0.000000 5.163680 0.712089 -5.503880 4.223819 -0.667998 -1.783341 0.000000 0.000000 0.000000 4.381829 -0.230367 -1.899716 2.032147 -3.061740 0.228604 4.231153 -0.761388 -1.145766 -22.890094 1.629335 3.823807 -53.562647 21.358224 10.235025 -1.231898 -27.977419 3.724923 3.700465 -0.233731 -0.904166 13.332841 8.369091 2.300523 59.535149 3.214083 -9.133344 0.818365 40.155445 -0.311317 0.000000 -0.000000 -0.000000 -3.387111 19.086103 -5.435074 2.030510 10.440879 22.975914 0.000000 -0.000000 0.000000 0.147288 -2.883512 -16.356406 3.644041 -6.919284 12.982818 
-1.793402 -0.111030 -0.166598 -2.510457 18.895152 -7.869141 0.000000 0.000000 0.000000 5.236093 0.569912 -5.325472 4.376817 -0.724528 -1.743694 0.000000 0.000000 0.000000 4.499955 -0.241040 -1.869143 2.140910 -3.093638 0.466034 4.380164 -0.783345 -1.053612 -22.637936 1.588553 3.825541 -53.887826 21.279694 9.983864 -1.280368 -28.501377 3.793035 3.820988 -0.254319 -0.900155 13.441812 8.511200 2.328643 59.446283 3.320491 -8.839903 0.828146 40.595856 -0.307205 0.000000 -0.000000 -0.000000 -2.657363 19.153188 -4.854233 1.670293 9.696467 23.257236 0.000000 -0.000000 0.000000 0.505633 -2.611659 -16.708846 3.900121 -7.036832 13.726067 
-1.858741 -0.175817 -0.053756 -2.485833 17.359911 -7.912315 0.000000 0.000000 0.000000 5.230796 0.342481 -5.146875 4.545103 -0.792975 -1.685530 0.000000 0.000000 0.000000 4.622404 -0.257080 -1.829759 2.274530 -3.018480 0.608521 4.535074 -0.811778 -0.955359 -22.482167 1.544158 3.805553 -54.158797 21.122801 9.859156 -1.331231 -28.879575 3.885682 3.947794 -0.287825 -0.893796 13.551467 8.636766 2.355883 59.325890 3.493940 -8.469721 0.836498 41.153771 -0.299381 0.000000 -0.000000 -0.000000 -1.906383 19.029934 -4.306449 1.238334 9.202424 23.413298 0.000000 -0.000000 0.000000 0.809058 -2.196175 -17.063638 4.149480 -7.148237 14.482099 
-1.867814 -0.242052 0.036155 -2.364055 15.516774 -7.881718 0.000000 -0.000000 0.000000 5.184479 0.075328 -4.972429 4.724522 -0.870786 -1.617803 0.000000 0.000000 0.000000 4.748188 -0.281906 -1.783008 2.388648 -2.928113 0.742335 4.696291 -0.846648 -0.855028 -22.419308 1.499756 3.763609 -54.360808 20.934281 9.863164 -1.380967 -29.090860 3.989915 4.080742 -0.339079 -0.887143 13.646114 8.758275 2.378858 59.186038 3.701401 -8.031161 0.849470 41.787888 -0.291497 0.000000 -0.000000 -0.000000 -1.293204 18.710274 -3.900253 0.545220 8.642524 23.529378 0.000000 -0.000000 0.000000 1.066666 -1.700643 -17.403154 4.388103 -7.248223 15.248788 
-1.819220 -0.307599 0.092117 -2.185083 13.484088 -7.786456 0.000000 -0.000000 0.000000 5.098262 -0.203024 -4.809250 4.907696 -0.959288 -1.548900 0.000000 0.000000 0.000000 4.874870 -0.312723 -1.720339 2.472528 -2.845832 0.860055 4.857877 -0.884175 -0.763074 -22.462034 1.479525 3.722655 -54.501142 20.755908 9.955398 -1.430962 -29.115875 4.102692 4.216638 -0.398818 -0.881167 13.707764 8.860690 2.392184 59.063652 3.943080 -7.587516 0.863511 42.414164 -0.281560 0.000000 -0.000000 -0.000000 -0.872716 18.249803 -3.582219 -0.005077 8.023064 23.671990 0.000000 -0.000000 0.000000 1.251319 -1.156090 -17.721186 4.617997 -7.325619 16.021021 
-1.713843 -0.368739 0.111857 -1.979200 11.406316 -7.671506 0.000000 -0.000000 0.000000 4.994525 -0.417526 -4.636948 5.051553 -1.052102 -1.480692 0.000000 0.000000 0.000000 4.996722 -0.354258 -1.656182 2.524035 -2.771048 0.958855 5.017288 -0.931154 -0.689011 -22.597863 1.473162 3.652577 -54.590824 20.601663 10.106448 -1.482296 -28.990651 4.221153 4.351146 -0.472044 -0.874722 13.731233 8.937507 2.393711 58.978480 4.167607 -7.211986 0.879552 43.008894 -0.273138 0.000000 -0.000000 -0.000000 -0.633310 17.771959 -3.290920 -0.332769 7.480511 23.848871 0.000000 -0.000000 0.000000 1.353236 -0.576543 -18.039018 4.843417 -7.376019 16.809259 
-1.551656 -0.424785 0.097868 -1.766000 9.389624 -7.565552 0.000000 -0.000000 0.000000 4.888385 -0.541460 -4.486346 5.176474 -1.146524 -1.425941 0.000000 0.000000 0.000000 5.107723 -0.404750 -1.595555 2.547791 -2.699953 1.035220 5.170541 -0.988693 -0.630467 -22.817240 1.450402 3.582880 -54.625901 20.500058 10.254130 -1.529850 -28.752729 4.327921 4.478405 -0.556993 -0.869298 13.703644 9.002013 2.385308 58.940611 4.385986 -6.937579 0.895346 43.537621 -0.263946 0.000000 -0.000000 -0.000000 -0.609030 17.355109 -2.990832 -0.567737 7.075020 24.083616 0.000000 -0.000000 0.000000 1.362997 0.029825 -18.390417 5.047384 -7.382296 17.653443 
-1.324410 -0.479076 0.073384 -1.539154 7.537266 -7.451913 0.000000 -0.000000 0.000000 4.738114 -0.662374 -4.365017 5.290112 -1.242254 -1.378154 0.000000 0.000000 0.000000 5.204644 -0.461044 -1.542209 2.552145 -2.632409 1.090870 5.307339 -1.051800 -0.587364 -23.094104 1.408424 3.504374 -54.607467 20.485100 10.364943 -1.575232 -28.450579 4.417311 4.593254 -0.648437 -0.867493 13.632166 9.054613 2.371545 58.955843 4.490220 -6.758093 0.910753 43.968213 -0.257976 0.000000 -0.000000 -0.000000 -0.803384 17.004920 -2.719383 -0.887446 6.545189 24.391023 0.000000 -0.000000 0.000000 1.258457 0.600529 -18.757177 5.211301 -7.320470 18.436575 
-1.040041 -0.529619 0.045755 -1.305452 5.847222 -7.331836 0.000000 -0.000000 0.000000 4.589438 -0.769540 -4.312699 5.388724 -1.331927 -1.347558 0.000000 0.000000 0.000000 5.284375 -0.513731 -1.520230 2.543885 -2.567395 1.131612 5.426248 -1.112473 -0.565714 -23.429400 1.364796 3.421397 -54.544329 20.587742 10.394002 -1.611567 -28.107617 4.485425 4.695922 -0.736725 -0.869272 13.517653 9.083035 2.349132 59.023708 4.497779 -6.662708 0.924516 44.290868 -0.250085 0.000000 -0.000000 -0.000000 -1.155882 16.714464 -2.524320 -1.275687 6.115161 24.206219 0.000000 -0.000000 0.000000 1.047728 1.087867 -19.156277 5.329707 -7.225460 19.197184 
-0.711393 -0.574637 0.019811 -1.083510 4.319309 -7.227899 0.000000 -0.000000 0.000000 4.449386 -0.845946 -4.296641 5.477145 -1.407921 -1.336407 0.000000 0.000000 0.000000 5.351943 -0.560117 -1.517637 2.524015 -2.518503 1.165140 5.533853 -1.165259 -0.565202 -23.802107 1.335934 3.332254 -54.440547 20.777814 10.330146 -1.639781 -27.791719 4.518566 4.785749 -0.813547 -0.874081 13.343882 9.084974 2.318893 59.137514 4.389326 -6.593521 0.937510 44.454853 -0.240437 0.000000 -0.000000 -0.000000 -1.620739 16.487178 -2.388917 -1.776093 5.674773 23.460862 0.000000 -0.000000 0.000000 0.780891 1.460660 -19.542332 5.409218 -7.123542 19.929673 
-0.347994 -0.611428 -0.001575 -0.899162 3.051349 -7.144092 0.000000 -0.000000 0.000000 4.324789 -0.887254 -4.306884 5.559592 -1.466026 -1.343634 0.000000 0.000000 0.000000 5.416677 -0.593814 -1.523039 2.488532 -2.486033 1.191144 5.632088 -1.202481 -0.578892 -24.174796 1.299093 3.244782 -54.293277 21.074275 10.178539 -1.657296 -27.515373 4.510776 4.870846 -0.871867 -0.883160 13.117552 9.077979 2.289244 59.289950 4.141495 -6.619393 0.950075 44.471169 -0.230261 0.000000 -0.000000 -0.000000 -2.192663 16.254980 -2.348076 -2.266708 5.076940 23.163580 0.000000 -0.000000 0.000000 0.478973 1.666186 -19.869272 5.448894 -7.024585 20.594248 
0.044813 -0.641902 -0.020211 -0.764077 2.050068 -7.086768 0.000000 -0.000000 0.000000 4.212009 -0.918741 -4.336587 5.640131 -1.507392 -1.358274 0.000000 0.000000 0.000000 5.481270 -0.614616 -1.531782 2.442915 -2.471163 1.212518 5.728229 -1.226518 -0.594832 -24.524308 1.262867 3.160645 -54.137936 21.464212 9.893894 -1.659865 -27.297301 4.454757 4.953825 -0.911980 -0.895188 12.837057 9.064290 2.258798 59.473906 3.813747 -6.768370 0.961066 44.360586 -0.214764 0.000000 -0.000000 -0.000000 -2.822903 16.054613 -2.427750 -2.906838 4.196850 23.094751 0.000000 -0.000000 0.000000 0.177267 1.682250 -20.110224 5.474403 -6.888423 21.162606 
0.461017 -0.667488 -0.037618 -0.676025 1.271517 -7.054530 0.000000 -0.000000 0.000000 4.099961 -0.951570 -4.352721 5.721098 -1.534492 -1.379617 0.000000 0.000000 0.000000 5.545100 -0.625868 -1.541386 2.396109 -2.471790 1.227778 5.818367 -1.238662 -0.611864 -24.823313 1.205575 3.091551 -53.979410 21.943787 9.537415 -1.644703 -27.156453 4.348613 5.033408 -0.938843 -0.908058 12.523860 9.072521 2.236470 59.672883 3.441080 -7.017987 0.974574 44.224940 -0.194373 0.000000 -0.000000 -0.000000 -3.483265 15.927044 -2.514949 -3.582559 3.041188 23.135786 0.000000 -0.000000 0.000000 -0.115504 1.440413 -20.275009 5.478541 -6.702949 21.694469 
